# AST/ASF file generated using VICON BodyLanguage
# -----------------------------------------------
:version 1.10
:name VICON
:units
  mass 1.0
  length 0.45
  angle deg
:documentation
   .ast/.asf automatically generated from VICON data using
   VICON BodyBuilder and BodyLanguage model FoxedUp or BRILLIANT.MOD
:root
   order TX TY TZ RX RY RZ
   axis XYZ
   position 0 0 0  
   orientation 0 0 0 
:bonedata
  begin
     id 1 
     name lhipjoint
     direction 0.567725 -0.736092 0.368589 
     length 2.42353 
     axis 0 0 0  XYZ
  end
  begin
     id 2 
     name lfemur
     direction 0.34202 -0.939693 0  
     length 7.24894  
     axis 0 0 20  XYZ
    dof rx ry rz
    limits (-160.0 20.0)
           (-70.0 70.0)
           (-60.0 70.0)
  end
  begin
     id 3 
     name ltibia
     direction 0.34202 -0.939693 0   
     length 7.6997   
     axis 0 0 20   XYZ
    dof rx
    limits (-10.0 170.0)
  end
  begin
     id 4 
     name lfoot
     direction 0.100767 -0.276854 0.955614   
     length 2.37556   
     axis -90 7.62852e-016 20   XYZ
    dof rx rz
    limits (-45.0 90.0)
           (-70.0 20.0)
  end
  begin
     id 5 
     name ltoes
     direction 1.53592e-011 -4.21894e-011 1   
     length 1.18363   
     axis -90 7.62852e-016 20   XYZ
    dof rx
    limits (-90.0 20.0)
  end
  begin
     id 6 
     name rhipjoint
     direction -0.556459 -0.742938 0.372017   
     length 2.4012  
     axis 0 0 0  XYZ 
  end
  begin
     id 7 
     name rfemur
     direction -0.34202 -0.939693 0   
     length 7.5119   
     axis 0 0 -20   XYZ
    dof rx ry rz
    limits (-160.0 20.0)
           (-70.0 70.0)
           (-70.0 60.0)
  end
  begin
     id 8 
     name rtibia
     direction -0.34202 -0.939693 0   
     length 7.50155   
     axis 0 0 -20   XYZ
    dof rx
    limits (-10.0 170.0)
 end
 begin
     id 9 
     name rfoot
     direction -0.118427 -0.325376 0.938139   
     length 2.32487  
     axis -90 -7.62852e-016 -20   XYZ
    dof rx rz
    limits (-45.0 90.0)
           (-20.0 70.0)
  end
  begin
     id 10 
     name rtoes
     direction -1.53525e-011 -4.21868e-011 1   
     length 1.15233   
     axis -90 -7.62852e-016 -20   XYZ
    dof rx
    limits (-90.0 20.0)
  end
  begin
     id 11 
     name lowerback
     direction 0.0287568 0.999577 -0.00434502   
     length 2.15243   
     axis 0 0 0   XYZ
    dof rx ry rz
    limits (-20.0 45.0)
           (-30.0 30.0)
           (-30.0 30.0)
  end
  begin
     id 12 
     name upperback
     direction 0.0294009 0.99956 0.00404628   
     length 2.15427   
     axis 0 0 0   XYZ
    dof rx ry rz
    limits (-20.0 45.0)
           (-30.0 30.0)
           (-30.0 30.0)
  end
  begin
     id 13 
     name thorax
     direction 0.0151014 0.999868 0.0059419   
     length 2.14898   
     axis 0 0 0   XYZ
    dof rx ry rz
    limits (-20.0 45.0)
           (-30.0 30.0)
           (-30.0 30.0)
  end
  begin
     id 14 
     name lowerneck
     direction -0.0249197 0.989906 0.139515   
     length 1.6861   
     axis 0 0 0   XYZ
    dof rx ry rz
    limits (-20.0 45.0)
           (-30.0 30.0)
           (-30.0 30.0)
  end
  begin
     id 15 
     name upperneck
     direction 0.0438463 0.988795 -0.142693   
     length 1.71276   
     axis 0 0 0   XYZ
    dof rx ry rz
    limits (-20.0 45.0)
           (-30.0 30.0)
           (-30.0 30.0)
  end
  begin
     id 16
     name head
     direction 0.0148499 0.997845 -0.0639186  
     length 1.7209  
     axis 0 0 0   XYZ
    dof rx ry rz
    limits (-20.0 45.0)
           (-30.0 30.0)
           (-30.0 30.0)
  end
  begin
     id 17 
     name lclavicle
     direction 0.940298 0.323464 -0.105876  
     length 3.9048  
     axis 0 0 0   XYZ
    dof ry rz
    limits (-20.0 10.0)
           (0.0 20.0)
  end
  begin
     id 18 
     name lhumerus
     direction 1 -4.48954e-011 -4.9675e-028   
     length 4.6851   
     axis 180 -30 -90   XYZ
    dof rx ry rz
    limits (-60.0 90.0)
           (-90.0 90.0)
           (-90.0 90.0)
  end
  begin
     id 19
     name lradius
     direction 1 -4.48992e-011 -1.03359e-026   
     length 3.39626   
     axis 180 -30 -90   XYZ
    dof rx
    limits (-10.0 170.0)
  end
  begin
     id 20
     name lwrist
     direction 1 -4.48906e-011 -1.67336e-026   
     length 1.69813   
     axis 9.90442e-015 90 90   XYZ
    dof ry
    limits (-180.0 0.0)
 end
  begin
     id 21 
     name lhand
     direction 1 -4.49006e-011 -3.34673e-026   
     length 0.486078   
     axis 2.1355e-014 90 90   XYZ
    dof rx rz
    limits (-90.0 90.0)
           (-45.0 45.0)
  end
  begin
     id 22 
     name lfingers
     direction 1 -4.48992e-011 -6.69345e-026   
     length 0.391889   
     axis 4.27099e-014 90 90   XYZ
    dof rx
    limits (0.0 90.0)
  end
  begin
     id 23
     name lthumb
     direction 0.707107 -6.34926e-011 0.707107   
     length 0.562676   
     axis -90 45 2.85299e-015   XYZ
    dof rx rz
    limits (-45.0 45.0)
           (-45.0 45.0)
  end
  begin
     id 24 
     name rclavicle
     direction -0.882459 0.414895 -0.221648   
     length 3.44646  
     axis 0 0 0   XYZ 
    dof ry rz
    limits (-10.0 20.0)
           (-20.0 0.0)
  end
  begin
     id 25 
     name rhumerus
     direction -1 -4.48962e-011 -2.37984e-027  
     length 5.55576   
     axis 180 30 90   XYZ
    dof rx ry rz
    limits (-90.0 60.0)
           (-90.0 90.0)
           (-90.0 90.0)
  end
  begin
     id 26 
     name rradius
     direction -1 -4.48982e-011 -6.86791e-027   
     length 3.32774   
     axis 180 30 90   XYZ
    dof rx
    limits (-10.0 170.0)
  end
  begin
     id 27 
     name rwrist
     direction -1 -4.48961e-011 -1.67336e-026   
     length 1.66387   
     axis 9.90442e-015 -90 -90   XYZ
    dof ry
    limits (-180.0 0.0)
  end
  begin
     id 28
     name rhand
     direction -1 -4.4897e-011 -3.34673e-026   
     length 0.507628   
     axis 2.1355e-014 -90 -90   XYZ
    dof rx rz
    limits (-90.0 90.0)
           (-45.0 45.0)
  end
  begin
     id 29
     name rfingers
     direction -1 -4.48854e-011 -6.69345e-026   
     length 0.409263   
     axis 4.27099e-014 -90 -90   XYZ
    dof rx
    limits (0.0 90.0)
  end
  begin
     id 30
     name rthumb
     direction -0.707107 -6.34913e-011 0.707107   
     length 0.587622   
     axis -90 -45 -2.85299e-015   XYZ
    dof rx rz
    limits (-45.0 45.0)
           (-45.0 45.0)
  end
:hierarchy
  begin
    root lhipjoint rhipjoint lowerback
    lhipjoint lfemur
    lfemur ltibia
    ltibia lfoot
    lfoot ltoes
    rhipjoint rfemur
    rfemur rtibia
    rtibia rfoot
    rfoot rtoes
    lowerback upperback
    upperback thorax
    thorax lowerneck lclavicle rclavicle
    lowerneck upperneck
    upperneck head
    lclavicle lhumerus
    lhumerus lradius
    lradius lwrist
    lwrist lhand lthumb
    lhand lfingers
    rclavicle rhumerus
    rhumerus rradius
    rradius rwrist
    rwrist rhand rthumb
    rhand rfingers
  end

#!OML:ASF E:\motion texture\Top Level 1\Subject 1\Session 1\male.ASF
:FULLY-SPECIFIED
:DEGREES
172
root 35.6755 17.3879 9.46012 -152.767 -82.5144 191.646
lowerback 33.6407 0.317298 1.98788
upperback 8.58694 0.635621 7.27348
thorax -7.85306 -0.253053 6.48807
lowerneck -14.4102 0.546769 -7.7787
upperneck -17.9734 1.067 5.02615
head -3.20684 0.304117 2.9058
rclavicle 7.15625e-015 1.08338e-013
rhumerus 10.4032 13.4817 -87.2369
rradius 60.1316
rwrist -7.77157
rhand -25.9442 -34.9983
rfingers 7.12502
rthumb 0.599654 -64.9772
lclavicle 7.15625e-015 1.08338e-013
lhumerus 28.1586 -28.0078 91.1496
lradius 46.9056
lwrist 3.29268
lhand 1.33012 30.7682
lfingers 7.12502
lthumb 26.8638 58.8797
rfemur -64.9743 -3.39106 34.028
rtibia 40.6456
rfoot -8.97212 -5.24356
rtoes 16.4955
lfemur -52.9409 6.02399 -16.2509
ltibia 58.5925
lfoot -16.8272 2.86386
ltoes -18.7303
173
root 35.4909 17.4212 9.46438 -153.502 -82.5497 192.072
lowerback 33.3443 0.144352 2.25086
upperback 8.55002 0.491582 7.14699
thorax -7.75239 -0.315185 6.25654
lowerneck -14.3471 0.584232 -7.6824
upperneck -17.9833 1.11546 5.14776
head -3.2197 0.318914 2.92853
rclavicle 1.78906e-014 6.36111e-015
rhumerus 8.70723 12.9661 -86.6286
rradius 60.6895
rwrist -8.00268
rhand -25.2546 -34.794
rfingers 7.12502
rthumb 1.26564 -64.7699
lclavicle 1.78906e-014 6.36111e-015
lhumerus 26.9698 -28.3905 90.5319
lradius 47.4069
lwrist 2.01482
lhand 1.36249 30.1256
lfingers 7.12502
lthumb 26.8947 58.2323
rfemur -63.8876 -3.45769 33.7086
rtibia 40.5407
rfoot -9.26402 -5.62778
rtoes 15.3338
lfemur -53.3876 5.98554 -16.0369
ltibia 57.9377
lfoot -16.803 3.03762
ltoes -18.4228
174
root 35.3049 17.4528 9.46826 -154.286 -82.5868 192.516
lowerback 33.0193 -0.0199958 2.51654
upperback 8.51203 0.357065 7.02664
thorax -7.64391 -0.372607 6.02583
lowerneck -14.2891 0.618693 -7.57697
upperneck -17.9808 1.15847 5.26038
head -3.22771 0.33093 2.94666
rclavicle -5.12864e-014 -1.34577e-013
rhumerus 6.9596 12.4001 -86.0041
rradius 61.2346
rwrist -8.24524
rhand -24.5539 -34.5808
rfingers 7.12502
rthumb 1.9424 -64.5518
lclavicle -5.12864e-014 -1.34577e-013
lhumerus 25.7188 -28.7062 89.9724
lradius 47.9196
lwrist 0.730392
lhand 1.35476 29.5176
lfingers 7.12502
lthumb 26.8873 57.6254
rfemur -62.7735 -3.52456 33.396
rtibia 40.4559
rfoot -9.54111 -6.01669
rtoes 14.1494
lfemur -53.7897 5.94017 -15.824
ltibia 57.2112
lfoot -16.7554 3.17791
ltoes -18.142
175
root 35.1171 17.4826 9.47174 -155.117 -82.6251 192.978
lowerback 32.6651 -0.176232 2.78286
upperback 8.47327 0.230482 6.91278
thorax -7.52653 -0.426046 5.79788
lowerneck -14.2354 0.650826 -7.46457
upperneck -17.9658 1.19738 5.36585
head -3.231 0.340985 2.96113
rclavicle -2.42517e-014 -2.52457e-014
rhumerus 5.1636 11.7894 -85.3605
rradius 61.763
rwrist -8.51436
rhand -23.8582 -34.3765
rfingers 7.12502
rthumb 2.61434 -64.3402
lclavicle -2.42517e-014 -2.52457e-014
lhumerus 24.3982 -28.9439 89.4768
lradius 48.4443
lwrist -0.563301
lhand 1.30246 28.9477
lfingers 7.12502
lthumb 26.8373 57.0632
rfemur -61.634 -3.59047 33.0898
rtibia 40.3914
rfoot -9.80181 -6.409
rtoes 12.9447
lfemur -54.147 5.88586 -15.612
ltibia 56.4138
lfoot -16.6875 3.28874
ltoes -17.9029
176
root 34.9276 17.5108 9.47475 -156.005 -82.663 193.467
lowerback 32.2836 -0.32325 3.04817
upperback 8.435 0.112243 6.80567
thorax -7.39925 -0.475394 5.57369
lowerneck -14.1875 0.681038 -7.34607
upperneck -17.9385 1.23292 5.46505
head -3.22947 0.349495 2.97239
rclavicle 2.3059e-014 1.25632e-013
rhumerus 3.32556 11.1355 -84.6959
rradius 62.268
rwrist -8.81532
rhand -23.1695 -34.1827
rfingers 7.12502
rthumb 3.27939 -64.1372
lclavicle 2.3059e-014 1.25632e-013
lhumerus 23.0207 -29.0989 89.0355
lradius 48.9703
lwrist -1.85551
lhand 1.19858 28.4092
lfingers 7.12502
lthumb 26.7379 56.5399
rfemur -60.4693 -3.65392 32.7919
rtibia 40.3481
rfoot -10.0438 -6.80228
rtoes 11.7157
lfemur -54.4562 5.82551 -15.4006
ltibia 55.5451
lfoot -16.5957 3.37451
ltoes -17.7046
177
root 34.7361 17.5372 9.47724 -156.951 -82.698 193.988
lowerback 31.8761 -0.46066 3.3101
upperback 8.39688 0.00198741 6.70531
thorax -7.26258 -0.520778 5.35468
lowerneck -14.1477 0.710025 -7.22242
upperneck -17.897 1.26628 5.55872
head -3.22232 0.357179 2.98085
rclavicle 5.1684e-015 8.68689e-014
rhumerus 1.44926 10.4434 -84.008
rradius 62.7459
rwrist -9.14916
rhand -22.4909 -34.0118
rfingers 7.12502
rthumb 3.93475 -63.9552
lclavicle 5.1684e-015 8.68689e-014
lhumerus 21.5886 -29.166 88.6419
lradius 49.4937
lwrist -3.14274
lhand 1.042 27.9136
lfingers 7.12502
lthumb 26.588 56.0671
rfemur -59.2824 -3.71082 32.5009
rtibia 40.3282
rfoot -10.2658 -7.19596
rtoes 10.47
lfemur -54.7171 5.75969 -15.1892
ltibia 54.607
lfoot -16.4865 3.43644
ltoes -17.5391
178
root 34.5425 17.5619 9.47933 -157.959 -82.7315 194.545
lowerback 31.2001 -0.567499 3.50578
upperback 8.68952 -0.107969 6.45079
thorax -7.19966 -0.52788 5.3667
lowerneck -14.116 0.738145 -7.09428
upperneck -17.8412 1.29807 5.64748
head -3.20951 0.364419 2.98681
rclavicle 2.3059e-014 -1.51076e-014
rhumerus -0.457366 9.71422 -83.2957
rradius 63.1877
rwrist -9.5129
rhand -21.8254 -33.8586
rfingers 7.12502
rthumb 4.57734 -63.7892
lclavicle 2.3059e-014 -1.51076e-014
lhumerus 20.106 -29.1416 88.289
lradius 50.0126
lwrist -4.41229
lhand 0.838908 27.4681
lfingers 7.12502
lthumb 26.3937 55.6509
rfemur -58.0761 -3.76339 32.2188
rtibia 40.3329
rfoot -10.4662 -7.58689
rtoes 9.2147
lfemur -54.9299 5.68606 -14.9773
ltibia 53.6014
lfoot -16.3594 3.47792
ltoes -17.3901
179
root 34.3468 17.5849 9.48096 -159.02 -82.7635 195.131
lowerback 30.7497 -0.688677 3.76478
upperback 8.64019 -0.205786 6.3751
thorax -7.03826 -0.569448 5.14459
lowerneck -14.0933 0.765378 -6.96095
upperneck -17.7695 1.32814 5.73099
head -3.19043 0.371189 2.99005
rclavicle 9.93923e-015 2.64384e-014
rhumerus -2.39245 8.9511 -82.5548
rradius 63.5924
rwrist -9.90581
rhand -21.1766 -33.728
rfingers 7.12502
rthumb 5.2038 -63.6441
lclavicle 9.93923e-015 2.64384e-014
lhumerus 18.5778 -29.0233 87.9693
lradius 50.5235
lwrist -5.65083
lhand 0.589533 27.0674
lfingers 7.12502
lthumb 26.1549 55.2858
rfemur -56.8528 -3.81205 31.9451
rtibia 40.363
rfoot -10.6418 -7.97422
rtoes 7.9453
lfemur -55.0931 5.60339 -14.7658
ltibia 52.5302
lfoot -16.2149 3.50356
ltoes -17.2735
180
root 34.1488 17.6063 9.48218 -160.14 -82.7918 195.755
lowerback 30.2766 -0.801862 4.02087
upperback 8.58978 -0.297766 6.3049
thorax -6.86762 -0.607904 4.92762
lowerneck -14.08 0.792205 -6.82316
upperneck -17.6806 1.35737 5.8108
head -3.16469 0.37803 2.99119
rclavicle -6.91771e-014 -1.45908e-013
rhumerus -4.34983 8.15701 -81.784
rradius 63.953
rwrist -10.3224
rhand -20.541 -33.6167
rfingers 7.12502
rthumb 5.81755 -63.5169
lclavicle -6.91771e-014 -1.45908e-013
lhumerus 17.0085 -28.809 87.6739
lradius 51.0244
lwrist -6.84542
lhand 0.300617 26.7238
lfingers 7.12502
lthumb 25.8783 54.9829
rfemur -55.6179 -3.85576 31.6815
rtibia 40.4219
rfoot -10.7905 -8.3544
rtoes 6.66463
lfemur -55.2088 5.51276 -14.5543
ltibia 51.3984
lfoot -16.0541 3.51934
ltoes -17.1712
